<svg width="57" height="46" viewBox="0 0 57 46" fill="none" xmlns="http://www.w3.org/2000/svg">
<path d="M4.26758 43.3627C4.26758 41.952 5.32562 40.8939 6.71282 40.8939C7.45932 40.8939 8.06475 41.1937 8.47034 41.6816C8.52912 41.758 8.54675 41.8168 8.48797 41.8755L8.24109 42.1048C8.15293 42.193 8.07651 42.1518 8.01773 42.093C7.71795 41.7756 7.35352 41.5346 6.74221 41.5346C5.70768 41.5346 4.93767 42.2811 4.93767 43.3568C4.93767 44.4325 5.70768 45.179 6.75396 45.179C7.36527 45.179 7.72971 44.938 8.01773 44.6323C8.08239 44.5677 8.1588 44.5265 8.24697 44.6147L8.49385 44.8439C8.55263 44.9027 8.53499 44.9615 8.47621 45.0379C8.07063 45.5258 7.47108 45.8255 6.71282 45.8255C5.31974 45.8255 4.26758 44.7675 4.26758 43.3627Z" fill="black"/>
<path d="M11.0459 43.3627C11.0459 41.9637 12.0804 40.8939 13.4559 40.8939C14.8313 40.8939 15.8541 41.9578 15.8541 43.3627C15.8541 44.7675 14.8196 45.8255 13.4559 45.8255C12.0922 45.8255 11.0459 44.7616 11.0459 43.3627ZM15.1781 43.3627C15.1781 42.2988 14.4375 41.5405 13.45 41.5405C12.4625 41.5405 11.716 42.2988 11.716 43.3627C11.716 44.4266 12.4566 45.1848 13.45 45.1848C14.4434 45.1848 15.1781 44.4266 15.1781 43.3627Z" fill="black"/>
<path d="M21.0736 41.1584V41.4817C21.0736 41.5875 21.0089 41.6052 20.9031 41.5758C20.7797 41.5346 20.6621 41.5287 20.5681 41.5287C19.7217 41.5287 19.4924 42.287 19.4924 42.816V45.5787C19.4924 45.6668 19.4513 45.7139 19.369 45.7139H18.9281C18.84 45.7139 18.8047 45.6668 18.8047 45.5787V41.1467C18.8047 41.0585 18.8458 41.0115 18.9281 41.0115H19.3337C19.4278 41.0115 19.4689 41.0526 19.4689 41.1525L19.4865 41.6874C19.6688 41.2466 19.9862 40.8939 20.5681 40.8939C20.7621 40.8939 20.9149 40.9351 20.9972 40.988C21.056 41.0291 21.0736 41.0644 21.0736 41.1525V41.1584Z" fill="black"/>
<path d="M27.6569 43.6154H24.1184C24.2065 44.5441 24.8472 45.2436 25.9876 45.2436C26.5636 45.2436 26.9751 45.0732 27.3395 44.791C27.3865 44.7499 27.4453 44.7499 27.4806 44.8028L27.6452 45.0261C27.7098 45.1143 27.6745 45.1613 27.604 45.226C27.1808 45.6316 26.5754 45.8314 25.9229 45.8314C24.3888 45.8314 23.4365 44.7205 23.4365 43.345C23.4365 41.9696 24.3946 40.8998 25.7995 40.8998C27.2043 40.8998 27.9978 41.9755 27.9978 43.1276C27.9978 43.4744 27.9332 43.6154 27.651 43.6154H27.6569ZM24.1125 43.0746H27.3865C27.3571 42.1518 26.7458 41.5111 25.7936 41.5111C24.8414 41.5111 24.2007 42.1224 24.1125 43.0746Z" fill="black"/>
<path d="M33.9692 40.1004V41.0115H34.9215C35.0096 41.0115 35.0567 41.0585 35.0567 41.1467V41.4523C35.0567 41.5405 35.0096 41.5875 34.9215 41.5875H33.9692V45.5787C33.9692 45.6668 33.9281 45.7139 33.8458 45.7139H33.4049C33.3168 45.7139 33.2815 45.6668 33.2815 45.5787V41.5875H32.7172C32.6291 41.5875 32.582 41.5405 32.582 41.4523V41.1467C32.582 41.0585 32.6291 41.0115 32.7172 41.0115H33.2815V39.9476C33.2815 39.1423 33.693 38.7014 34.51 38.7014C34.6805 38.7014 34.8333 38.7191 34.9685 38.7778C35.0332 38.8072 35.0567 38.8249 35.0567 38.9013V39.2951C35.0567 39.3598 34.9979 39.3715 34.9391 39.3598C34.8157 39.3421 34.7099 39.3304 34.6158 39.3304C34.0809 39.3304 33.9751 39.6654 33.9751 40.1004H33.9692Z" fill="black"/>
<path d="M37.8545 39.3656C37.8545 39.1188 38.0485 38.9248 38.2836 38.9248C38.5187 38.9248 38.7127 39.1188 38.7127 39.3656C38.7127 39.6125 38.5187 39.7947 38.2836 39.7947C38.0485 39.7947 37.8545 39.6008 37.8545 39.3656ZM37.9427 45.5787V41.1467C37.9427 41.0585 37.9838 41.0115 38.0661 41.0115H38.5069C38.5951 41.0115 38.6304 41.0585 38.6304 41.1467V45.5787C38.6304 45.6668 38.5892 45.7139 38.5069 45.7139H38.0661C37.9779 45.7139 37.9427 45.6668 37.9427 45.5787Z" fill="black"/>
<path d="M43.2977 45.6022L41.5401 41.1761C41.499 41.0703 41.5401 41.0115 41.6459 41.0115H42.0868C42.1632 41.0115 42.2102 41.0526 42.2396 41.129L43.6915 44.9497L45.1492 41.129C45.1786 41.0526 45.2256 41.0115 45.302 41.0115H45.7429C45.8487 41.0115 45.884 41.0703 45.8487 41.1761L44.0912 45.6022C44.0618 45.6786 43.9971 45.7197 43.9207 45.7197H43.4681C43.3917 45.7197 43.327 45.6786 43.2977 45.6022Z" fill="black"/>
<path d="M52.403 43.6154H48.8645C48.9526 44.5441 49.5933 45.2436 50.7337 45.2436C51.3097 45.2436 51.7212 45.0732 52.0856 44.791C52.1326 44.7499 52.1914 44.7499 52.2267 44.8028L52.3913 45.0261C52.4559 45.1143 52.4206 45.1613 52.3501 45.226C51.9269 45.6316 51.3215 45.8314 50.669 45.8314C49.1348 45.8314 48.1826 44.7205 48.1826 43.345C48.1826 41.9696 49.1407 40.8998 50.5456 40.8998C51.9504 40.8998 52.7439 41.9755 52.7439 43.1276C52.7439 43.4744 52.6793 43.6154 52.3971 43.6154H52.403ZM48.8645 43.0746H52.1385C52.1091 42.1518 51.4978 41.5111 50.5456 41.5111C49.5933 41.5111 48.9526 42.1224 48.8645 43.0746Z" fill="black"/>
<path d="M28.3615 32.3356C28.3615 32.3356 28.338 32.3356 28.3262 32.3297C28.097 32.2827 27.95 32.0535 27.997 31.8242L34.598 0.535707C34.645 0.306466 34.8684 0.153639 35.1035 0.20654C35.3328 0.253564 35.4797 0.482806 35.4327 0.712047L28.8317 32.0064C28.7847 32.2239 28.579 32.3709 28.3615 32.3415V32.3356Z" fill="black"/>
<path d="M47.9228 11.8743C47.7935 11.8743 47.6642 11.8743 47.5349 11.8861C47.0823 11.9037 46.6414 11.9566 46.2064 12.0448L47.1646 7.507H54.659L55.717 2.49895H43.097L42.0448 7.507L40.2227 16.13L40.205 16.1947L45.1073 17.2292L45.9419 17.4055C46.0948 17.3174 46.2476 17.2409 46.4122 17.188C46.8765 16.9999 47.3879 16.9 47.9169 16.9C50.1741 16.9 51.9963 18.7281 51.9963 20.9793C51.9963 23.2306 50.1682 25.0587 47.9169 25.0587C46.5768 25.0587 45.3894 24.418 44.6488 23.4187C44.2667 22.9132 44.0081 22.3254 43.8964 21.6847L38.9883 22.7192C39.676 26.2872 42.4622 29.1086 46.0125 29.8668C46.6297 30.002 47.2645 30.0726 47.9169 30.0726C52.9367 30.0726 57.0102 26.005 57.0102 20.9793C57.0102 15.9537 52.9367 11.8802 47.9169 11.8802L47.9228 11.8743Z" fill="black"/>
<path d="M13.7897 24.9529C8.98744 24.9529 5.09621 21.0616 5.09621 16.2593C5.09621 11.457 8.98744 7.56578 13.7897 7.56578C16.5113 7.56578 18.9389 8.81191 20.5318 10.7693L24.9579 8.16533C22.4539 4.71495 18.3805 2.46956 13.7897 2.46956C6.17776 2.46956 0 8.64145 0 16.2593C0 23.8772 6.17776 30.0491 13.7897 30.0491C18.0748 30.0491 21.9014 28.0976 24.4348 25.0293L19.9499 22.3959C18.3746 23.9771 16.1997 24.9529 13.7897 24.9529Z" fill="black"/>
</svg>
