<svg width="119" height="38" viewBox="0 0 119 38" fill="none" xmlns="http://www.w3.org/2000/svg">
<path d="M81.8359 37.7726C80.9664 34.1875 80.097 30.6023 79.2169 27.0172C77.3492 19.4606 75.4814 11.9039 73.6137 4.34725C73.5815 4.20771 73.5385 4.06817 73.4956 3.92863C72.8516 1.5457 72.4652 1.21295 70.0823 1.03048C69.9428 0.536719 69.7388 0.0429607 70.5868 0.0429607C75.6639 0.0429607 80.7411 0.0429607 86.0543 0.0429607C85.9255 0.472316 85.9255 0.976808 85.7323 1.06268C84.5408 1.61011 84.573 2.64056 84.7769 3.63881C85.2063 5.71045 85.7322 7.76062 86.2367 9.82153C87.4497 14.8021 88.6626 19.7826 89.9185 24.9348C90.0795 24.645 90.2083 24.5055 90.2512 24.3337C91.1421 20.8238 92.0224 17.303 92.8811 13.7823C92.9777 13.3852 92.9777 12.9236 92.8811 12.5265C92.2048 9.70346 91.5071 6.88045 90.7879 4.05743C90.4659 2.7801 90.0473 1.57791 88.609 1.11635C88.3943 1.05195 88.3191 0.547453 88.1152 0.118098C88.566 0.075162 88.7592 0.0322266 88.9632 0.0322266C93.6968 0.0322266 98.4304 0.0322266 103.164 0.0322266C103.819 0.0322266 104.323 0.0751617 104.012 0.95534C102.134 1.29882 101.661 1.87846 102.101 3.75688C103.754 10.7768 105.472 17.7753 107.222 25.01C107.383 24.6236 107.501 24.4196 107.554 24.2157C108.907 18.8917 110.27 13.5784 111.569 8.24365C111.805 7.2454 111.902 6.17201 111.816 5.15229C111.58 2.30781 110.56 1.32029 107.78 1.00901C107.651 0.493783 107.533 0.0536948 108.349 0.0536948C111.536 0.0644287 114.724 0.0536948 117.934 0.0536948C118.213 0.72993 118.192 1.13782 117.365 1.09488C116.077 1.03048 115.186 1.76038 114.682 2.83377C114.016 4.25064 113.404 5.72119 113.018 7.23466C110.474 17.0991 107.994 26.985 105.493 36.8602C105.418 37.1715 105.3 37.472 105.204 37.7833H99.1066C99.0852 37.5686 99.0852 37.3539 99.0423 37.15C97.3356 30.2588 95.6289 23.3677 93.9222 16.4765C93.8686 16.2619 93.7827 16.0472 93.7076 15.8325C93.0528 17.6251 92.6019 19.4176 92.1511 21.2102C90.7557 26.7381 89.3495 32.2553 87.9541 37.7833H81.8573L81.8359 37.7726Z" fill="black"/>
<path d="M0 0C3.40264 0.0107339 6.79455 0.0322016 10.1972 0.0429355C17.668 0.0429355 25.1388 0.0429355 32.5988 0.0429355H33.8868C33.9405 0.311283 34.005 0.515227 34.005 0.71917C34.005 5.35621 34.0049 10.004 34.0264 14.641C34.0264 15.3495 33.844 15.6607 33.0712 15.4139C32.674 11.8395 31.2786 8.64078 29.4001 5.65676C28.7776 4.66924 28.0477 3.72466 27.2748 2.85521C25.7614 1.18073 24.9562 0.923114 22.4982 1.15926V2.38292C22.4982 12.5586 22.4982 22.7451 22.4982 32.9208C22.4982 36.0122 23.0778 36.6133 26.1155 36.6992C26.255 36.6992 26.3947 36.7206 26.6093 36.7421C26.6415 37.0856 26.6737 37.4291 26.7059 37.7618H7.35268C7.37415 37.4183 7.38494 37.0856 7.40641 36.667C7.99677 36.667 8.49049 36.6992 8.97351 36.667C10.6802 36.5274 11.4101 35.7546 11.5282 33.9942C11.5496 33.6722 11.5497 33.3502 11.5497 33.0282C11.5497 22.7773 11.5497 12.5264 11.5497 2.27558C11.5497 1.8999 11.5174 1.52421 11.4959 1.2022C9.47798 0.729904 7.97534 1.40614 6.77314 2.85521C5.97884 3.81053 5.20592 4.79805 4.55116 5.84997C2.73713 8.78032 1.39544 11.9253 0.97682 15.4461C0.611868 15.4783 0.300549 15.5105 0 15.5427V0Z" fill="black"/>
<path d="M37.2344 37.7726C37.2666 37.4613 37.3096 37.1393 37.3526 36.7529C37.9859 36.7099 38.6192 36.7207 39.231 36.6348C40.6908 36.4309 41.324 35.7331 41.4528 34.2304C41.4851 33.801 41.4958 33.3717 41.4958 32.9423C41.4958 23.5931 41.4958 14.2332 41.4958 4.88396C41.4958 4.59414 41.4958 4.30433 41.4958 4.02525C41.4207 1.98581 40.7122 1.24517 38.7586 1.10563C38.5118 1.08416 38.2756 1.07343 37.9751 1.0627C37.7497 0.450864 37.739 0.0537109 38.5655 0.0537109C44.1793 0.0644448 49.7823 0.0644448 55.3962 0.0537109C56.1905 0.0537109 56.1261 0.472332 56.0081 0.998292C53.389 1.25591 52.4336 1.28811 52.4443 5.20598C52.4765 14.2654 52.4443 23.3355 52.4443 32.4056V33.0497C52.4551 36.2806 54.194 37.515 57.1888 36.3986C58.8525 35.7761 60.1298 34.5846 61.214 33.2C63.8652 29.8402 65.6578 26.0726 66.3341 21.7684C66.377 21.4785 66.7741 21.2424 67.0103 20.9848C67.1176 21.0492 67.2141 21.1136 67.3215 21.1887V37.7833H37.2344V37.7726Z" fill="black"/>
</svg>
