<svg width="118" height="46" viewBox="0 0 118 46" fill="none" xmlns="http://www.w3.org/2000/svg">
<g clip-path="url(#clip0_1695_482)">
<rect width="118" height="46" fill="white"/>
<path d="M81.8359 41.7726C80.9664 38.1875 80.097 34.6023 79.2169 31.0172C77.3492 23.4606 75.4814 15.9039 73.6137 8.34725C73.5815 8.20771 73.5385 8.06817 73.4956 7.92863C72.8516 5.5457 72.4652 5.21295 70.0823 5.03048C69.9428 4.53672 69.7388 4.04296 70.5868 4.04296C75.6639 4.04296 80.7411 4.04296 86.0543 4.04296C85.9255 4.47232 85.9255 4.97681 85.7323 5.06268C84.5408 5.61011 84.573 6.64056 84.7769 7.63881C85.2063 9.71045 85.7322 11.7606 86.2367 13.8215C87.4497 18.8021 88.6626 23.7826 89.9185 28.9348C90.0795 28.645 90.2083 28.5055 90.2512 28.3337C91.1421 24.8238 92.0224 21.303 92.8811 17.7823C92.9777 17.3852 92.9777 16.9236 92.8811 16.5265C92.2048 13.7035 91.5071 10.8804 90.7879 8.05743C90.4659 6.7801 90.0473 5.57791 88.609 5.11635C88.3943 5.05195 88.3191 4.54745 88.1152 4.1181C88.566 4.07516 88.7592 4.03223 88.9632 4.03223C93.6968 4.03223 98.4304 4.03223 103.164 4.03223C103.819 4.03223 104.323 4.07516 104.012 4.95534C102.134 5.29882 101.661 5.87845 102.101 7.75688C103.754 14.7768 105.472 21.7753 107.222 29.01C107.383 28.6236 107.501 28.4196 107.554 28.2157C108.907 22.8917 110.27 17.5784 111.569 12.2436C111.805 11.2454 111.902 10.172 111.816 9.15229C111.58 6.30781 110.56 5.32029 107.78 5.00901C107.651 4.49378 107.533 4.05369 108.349 4.05369C111.536 4.06443 114.724 4.05369 117.934 4.05369C118.213 4.72993 118.192 5.13782 117.365 5.09488C116.077 5.03048 115.186 5.76038 114.682 6.83377C114.016 8.25064 113.404 9.72119 113.018 11.2347C110.474 21.0991 107.994 30.985 105.493 40.8602C105.418 41.1715 105.3 41.472 105.204 41.7833H99.1066C99.0852 41.5686 99.0852 41.3539 99.0423 41.15C97.3356 34.2588 95.6289 27.3677 93.9222 20.4765C93.8686 20.2619 93.7827 20.0472 93.7076 19.8325C93.0528 21.6251 92.6019 23.4176 92.1511 25.2102C90.7557 30.7381 89.3495 36.2553 87.9541 41.7833H81.8573L81.8359 41.7726Z" fill="black"/>
<path d="M0 4C3.40264 4.01073 6.79455 4.0322 10.1972 4.04294C17.668 4.04294 25.1388 4.04294 32.5988 4.04294H33.8868C33.9405 4.31128 34.005 4.51523 34.005 4.71917C34.005 9.35621 34.0049 14.004 34.0264 18.641C34.0264 19.3495 33.844 19.6607 33.0712 19.4139C32.674 15.8395 31.2786 12.6408 29.4001 9.65676C28.7776 8.66924 28.0477 7.72466 27.2748 6.85521C25.7614 5.18073 24.9562 4.92311 22.4982 5.15926V6.38292C22.4982 16.5586 22.4982 26.7451 22.4982 36.9208C22.4982 40.0122 23.0778 40.6133 26.1155 40.6992C26.255 40.6992 26.3947 40.7206 26.6093 40.7421C26.6415 41.0856 26.6737 41.4291 26.7059 41.7618H7.35268C7.37415 41.4183 7.38494 41.0856 7.40641 40.667C7.99677 40.667 8.49049 40.6992 8.97351 40.667C10.6802 40.5274 11.4101 39.7546 11.5282 37.9942C11.5496 37.6722 11.5497 37.3502 11.5497 37.0282C11.5497 26.7773 11.5497 16.5264 11.5497 6.27558C11.5497 5.8999 11.5174 5.52421 11.4959 5.2022C9.47798 4.7299 7.97534 5.40614 6.77314 6.85521C5.97884 7.81053 5.20592 8.79805 4.55116 9.84997C2.73713 12.7803 1.39544 15.9253 0.97682 19.4461C0.611868 19.4783 0.300549 19.5105 0 19.5427V4Z" fill="black"/>
<path d="M37.2344 41.7726C37.2666 41.4613 37.3096 41.1393 37.3526 40.7529C37.9859 40.7099 38.6192 40.7207 39.231 40.6348C40.6908 40.4309 41.324 39.7331 41.4528 38.2304C41.4851 37.801 41.4958 37.3717 41.4958 36.9423C41.4958 27.5931 41.4958 18.2332 41.4958 8.88396C41.4958 8.59414 41.4958 8.30433 41.4958 8.02525C41.4207 5.98581 40.7122 5.24517 38.7586 5.10563C38.5118 5.08416 38.2756 5.07343 37.9751 5.0627C37.7497 4.45086 37.739 4.05371 38.5655 4.05371C44.1793 4.06444 49.7823 4.06444 55.3962 4.05371C56.1905 4.05371 56.1261 4.47233 56.0081 4.99829C53.389 5.25591 52.4336 5.28811 52.4443 9.20598C52.4765 18.2654 52.4443 27.3355 52.4443 36.4056V37.0497C52.4551 40.2806 54.194 41.515 57.1888 40.3986C58.8525 39.7761 60.1298 38.5846 61.214 37.1999C63.8652 33.8402 65.6578 30.0726 66.3341 25.7684C66.377 25.4785 66.7741 25.2424 67.0103 24.9848C67.1176 25.0492 67.2141 25.1136 67.3215 25.1887V41.7833H37.2344V41.7726Z" fill="black"/>
</g>
<defs>
<clipPath id="clip0_1695_482">
<rect width="118" height="46" fill="white"/>
</clipPath>
</defs>
</svg>
