<svg width="57" height="46" viewBox="0 0 57 46" fill="none" xmlns="http://www.w3.org/2000/svg">
<g clip-path="url(#clip0_1695_485)">
<rect width="57" height="46" fill="white"/>
<path d="M4.26733 43.1665C4.26733 41.7558 5.32537 40.6978 6.71257 40.6978C7.45908 40.6978 8.06451 40.9975 8.47009 41.4854C8.52887 41.5618 8.54651 41.6206 8.48773 41.6794L8.24085 41.9086C8.15268 41.9968 8.07627 41.9556 8.01749 41.8969C7.71771 41.5795 7.35328 41.3385 6.74196 41.3385C5.70744 41.3385 4.93742 42.085 4.93742 43.1606C4.93742 44.2363 5.70744 44.9828 6.75372 44.9828C7.36503 44.9828 7.72947 44.7418 8.01749 44.4362C8.08215 44.3715 8.15856 44.3303 8.24673 44.4185L8.4936 44.6478C8.55238 44.7065 8.53475 44.7653 8.47597 44.8417C8.07039 45.3296 7.47083 45.6294 6.71257 45.6294C5.31949 45.6294 4.26733 44.5713 4.26733 43.1665Z" fill="black"/>
<path d="M11.0453 43.1665C11.0453 41.7675 12.0798 40.6978 13.4553 40.6978C14.8307 40.6978 15.8535 41.7617 15.8535 43.1665C15.8535 44.5713 14.819 45.6294 13.4553 45.6294C12.0916 45.6294 11.0453 44.5655 11.0453 43.1665ZM15.1775 43.1665C15.1775 42.1026 14.4369 41.3443 13.4494 41.3443C12.4619 41.3443 11.7154 42.1026 11.7154 43.1665C11.7154 44.2304 12.456 44.9887 13.4494 44.9887C14.4428 44.9887 15.1775 44.2304 15.1775 43.1665Z" fill="black"/>
<path d="M21.0733 40.9623V41.2856C21.0733 41.3914 21.0087 41.409 20.9029 41.3796C20.7794 41.3385 20.6619 41.3326 20.5678 41.3326C19.7214 41.3326 19.4922 42.0908 19.4922 42.6199V45.3825C19.4922 45.4707 19.451 45.5177 19.3687 45.5177H18.9279C18.8397 45.5177 18.8044 45.4707 18.8044 45.3825V40.9505C18.8044 40.8623 18.8456 40.8153 18.9279 40.8153H19.3335C19.4275 40.8153 19.4687 40.8565 19.4687 40.9564L19.4863 41.4913C19.6685 41.0504 19.9859 40.6978 20.5678 40.6978C20.7618 40.6978 20.9146 40.7389 20.9969 40.7918C21.0557 40.8329 21.0733 40.8682 21.0733 40.9564V40.9623Z" fill="black"/>
<path d="M27.6568 43.4192H24.1182C24.2064 44.348 24.8471 45.0474 25.9874 45.0474C26.5635 45.0474 26.9749 44.877 27.3394 44.5948C27.3864 44.5537 27.4452 44.5537 27.4805 44.6066L27.645 44.83C27.7097 44.9181 27.6744 44.9652 27.6039 45.0298C27.1807 45.4354 26.5752 45.6352 25.9228 45.6352C24.3886 45.6352 23.4364 44.5243 23.4364 43.1489C23.4364 41.7734 24.3945 40.7036 25.7994 40.7036C27.2042 40.7036 27.9977 41.7793 27.9977 42.9314C27.9977 43.2782 27.9331 43.4192 27.6509 43.4192H27.6568ZM24.1124 42.8785H27.3864C27.357 41.9556 26.7457 41.3149 25.7935 41.3149C24.8412 41.3149 24.2005 41.9262 24.1124 42.8785Z" fill="black"/>
<path d="M33.9695 39.9043V40.8154H34.9217C35.0099 40.8154 35.0569 40.8624 35.0569 40.9506V41.2563C35.0569 41.3444 35.0099 41.3915 34.9217 41.3915H33.9695V45.3826C33.9695 45.4708 33.9283 45.5178 33.846 45.5178H33.4052C33.317 45.5178 33.2818 45.4708 33.2818 45.3826V41.3915H32.7175C32.6293 41.3915 32.5823 41.3444 32.5823 41.2563V40.9506C32.5823 40.8624 32.6293 40.8154 32.7175 40.8154H33.2818V39.7515C33.2818 38.9462 33.6932 38.5054 34.5103 38.5054C34.6807 38.5054 34.8335 38.523 34.9687 38.5818C35.0334 38.6112 35.0569 38.6288 35.0569 38.7052V39.099C35.0569 39.1637 34.9981 39.1755 34.9393 39.1637C34.8159 39.1461 34.7101 39.1343 34.6161 39.1343C34.0812 39.1343 33.9754 39.4694 33.9754 39.9043H33.9695Z" fill="black"/>
<path d="M37.8539 39.1694C37.8539 38.9225 38.0479 38.7285 38.283 38.7285C38.5181 38.7285 38.7121 38.9225 38.7121 39.1694C38.7121 39.4162 38.5181 39.5985 38.283 39.5985C38.0479 39.5985 37.8539 39.4045 37.8539 39.1694ZM37.9421 45.3824V40.9504C37.9421 40.8622 37.9832 40.8152 38.0655 40.8152H38.5063C38.5945 40.8152 38.6298 40.8622 38.6298 40.9504V45.3824C38.6298 45.4706 38.5886 45.5176 38.5063 45.5176H38.0655C37.9773 45.5176 37.9421 45.4706 37.9421 45.3824Z" fill="black"/>
<path d="M43.2978 45.4061L41.5403 40.98C41.4991 40.8742 41.5403 40.8154 41.6461 40.8154H42.0869C42.1633 40.8154 42.2103 40.8566 42.2397 40.933L43.6916 44.7537L45.1493 40.933C45.1787 40.8566 45.2257 40.8154 45.3022 40.8154H45.743C45.8488 40.8154 45.8841 40.8742 45.8488 40.98L44.0913 45.4061C44.0619 45.4825 43.9973 45.5237 43.9208 45.5237H43.4682C43.3918 45.5237 43.3272 45.4825 43.2978 45.4061Z" fill="black"/>
<path d="M52.4025 43.4192H48.8639C48.9521 44.348 49.5928 45.0474 50.7331 45.0474C51.3092 45.0474 51.7206 44.877 52.085 44.5948C52.1321 44.5537 52.1909 44.5537 52.2261 44.6066L52.3907 44.83C52.4554 44.9181 52.4201 44.9652 52.3496 45.0298C51.9263 45.4354 51.3209 45.6352 50.6685 45.6352C49.1343 45.6352 48.1821 44.5243 48.1821 43.1489C48.1821 41.7734 49.1402 40.7036 50.545 40.7036C51.9499 40.7036 52.7434 41.7793 52.7434 42.9314C52.7434 43.2782 52.6787 43.4192 52.3966 43.4192H52.4025ZM48.8639 42.8785H52.1379C52.1086 41.9556 51.4972 41.3149 50.545 41.3149C49.5928 41.3149 48.9521 41.9262 48.8639 42.8785Z" fill="black"/>
<path d="M28.3611 32.1396C28.3611 32.1396 28.3376 32.1396 28.3258 32.1337C28.0966 32.0867 27.9497 31.8574 27.9967 31.6282L34.5976 0.339663C34.6447 0.110421 34.868 -0.0424064 35.1032 0.0104955C35.3324 0.0575194 35.4793 0.286761 35.4323 0.516002L28.8313 31.8104C28.7843 32.0279 28.5786 32.1748 28.3611 32.1454V32.1396Z" fill="black"/>
<path d="M47.9224 11.6781C47.7931 11.6781 47.6638 11.6781 47.5344 11.6899C47.0818 11.7075 46.641 11.7604 46.206 11.8486L47.1641 7.31078H54.6586L55.7166 2.30273H43.0966L42.0444 7.31078L40.2222 15.9338L40.2046 15.9984L45.1068 17.033L45.9415 17.2093C46.0943 17.1211 46.2472 17.0447 46.4117 16.9918C46.8761 16.8037 47.3875 16.7038 47.9165 16.7038C50.1737 16.7038 51.9958 18.5318 51.9958 20.7831C51.9958 23.0344 50.1678 24.8624 47.9165 24.8624C46.5763 24.8624 45.389 24.2217 44.6484 23.2225C44.2663 22.717 44.0077 22.1292 43.896 21.4885L38.9879 22.523C39.6756 26.0909 42.4617 28.9124 46.012 29.6706C46.6292 29.8058 47.2641 29.8764 47.9165 29.8764C52.9363 29.8764 57.0097 25.8088 57.0097 20.7831C57.0097 15.7574 52.9363 11.684 47.9165 11.684L47.9224 11.6781Z" fill="black"/>
<path d="M13.7897 24.7567C8.98744 24.7567 5.09621 20.8655 5.09621 16.0632C5.09621 11.2609 8.98744 7.36965 13.7897 7.36965C16.5113 7.36965 18.9389 8.61578 20.5318 10.5732L24.9579 7.9692C22.4539 4.51883 18.3805 2.27344 13.7897 2.27344C6.17776 2.27344 0 8.44532 0 16.0632C0 23.6811 6.17776 29.8529 13.7897 29.8529C18.0748 29.8529 21.9014 27.9014 24.4348 24.8331L19.9499 22.1998C18.3746 23.781 16.1997 24.7567 13.7897 24.7567Z" fill="black"/>
</g>
<defs>
<clipPath id="clip0_1695_485">
<rect width="57" height="46" fill="white"/>
</clipPath>
</defs>
</svg>
