<svg width="304" height="140" viewBox="0 0 304 140" fill="none" xmlns="http://www.w3.org/2000/svg">
<g clip-path="url(#clip0_1588_1348)">
<g clip-path="url(#clip1_1588_1348)">
<path d="M96.75 139.92H87.75V127.5H96.66V129.86H90.43V132.45H95.69V134.81H90.43V137.56H96.75V139.92Z" fill="black"/>
<path d="M104.51 127.5C106 127.5 107.18 127.88 108.06 128.63C108.94 129.39 109.37 130.41 109.37 131.69C109.37 132.97 108.92 134.07 108.03 134.86C107.14 135.65 105.94 136.05 104.44 136.05H102.05V139.92H99.3701V127.5H104.52H104.51ZM102.04 133.67H104.22C104.95 133.67 105.53 133.5 105.95 133.16C106.37 132.82 106.58 132.36 106.58 131.78C106.58 131.2 106.38 130.71 105.97 130.38C105.56 130.04 104.99 129.88 104.26 129.88H102.05V133.68L102.04 133.67Z" fill="black"/>
<path d="M117.52 140.1C115.66 140.1 114.12 139.5 112.9 138.3C111.68 137.1 111.07 135.56 111.07 133.69C111.07 131.82 111.68 130.3 112.9 129.11C114.12 127.92 115.66 127.32 117.52 127.32C119.6 127.32 121.26 128.06 122.51 129.53L120.53 131.17C119.77 130.25 118.77 129.78 117.52 129.78C116.45 129.78 115.58 130.14 114.89 130.86C114.21 131.58 113.86 132.52 113.86 133.69C113.86 134.86 114.2 135.83 114.87 136.55C115.54 137.27 116.42 137.63 117.52 137.63C118.19 137.63 118.77 137.51 119.27 137.28C119.76 137.05 120.24 136.66 120.71 136.14L122.65 137.8C121.44 139.34 119.73 140.1 117.52 140.1Z" fill="black"/>
<path d="M141.21 139.92H138.37L137.38 137.15H132.5L131.51 139.92H128.68L133.49 127.5H136.42L141.21 139.92ZM134.73 130.97L133.33 134.88H136.57L135.17 130.97C135.17 130.97 135.14 130.86 135.11 130.77C135.08 130.69 135.05 130.61 135.03 130.54C135.01 130.47 134.98 130.4 134.96 130.32L134.74 130.97H134.73Z" fill="black"/>
<path d="M156.6 135.94L159.1 139.92H155.99L153.74 136.21C153.56 135.9 153.4 135.7 153.27 135.63C153.14 135.55 152.91 135.51 152.59 135.51H150.88V139.92H148.2V127.5H153.82C155.16 127.5 156.25 127.85 157.08 128.56C157.91 129.27 158.32 130.21 158.32 131.39C158.32 132.25 158.11 132.99 157.68 133.6C157.25 134.21 156.65 134.66 155.85 134.95C156.04 135.11 156.29 135.44 156.61 135.94H156.6ZM150.88 129.82V133.26H153.36C154.8 133.26 155.52 132.69 155.52 131.55C155.52 130.41 154.8 129.82 153.36 129.82H150.88Z" fill="black"/>
<path d="M172.96 139.92H170.12L169.13 137.15H164.25L163.26 139.92H160.43L165.24 127.5H168.17L172.96 139.92ZM166.48 130.97L165.08 134.88H168.32L166.92 130.97C166.92 130.97 166.89 130.86 166.86 130.77C166.83 130.69 166.8 130.61 166.78 130.54C166.76 130.47 166.73 130.4 166.71 130.32L166.49 130.97H166.48Z" fill="black"/>
<path d="M178.92 139.92H176.26V129.97H172.46V127.5H182.72V129.97H178.92V139.92Z" fill="black"/>
<path d="M187.34 139.92H184.66V127.5H187.34V139.92Z" fill="black"/>
<path d="M193.08 139.92H190.45V127.5H193.46L198.59 135.37C198.7 135.53 198.84 135.76 199 136.07C198.99 135.91 198.98 135.68 198.98 135.37V127.5H201.61V139.92H198.59L193.48 132.09C193.25 131.73 193.11 131.5 193.07 131.39C193.08 131.56 193.09 131.79 193.09 132.09V139.92H193.08Z" fill="black"/>
<path d="M210.38 135.22V132.99H216.25V139.92H214.11V138.53C213.37 139.57 212.09 140.1 210.28 140.1C208.47 140.1 207.02 139.52 205.85 138.36C204.69 137.2 204.1 135.68 204.1 133.8C204.1 131.92 204.71 130.32 205.95 129.12C207.18 127.92 208.75 127.32 210.66 127.32C212.98 127.32 214.76 128.06 216.02 129.53L214.04 131.17C213.28 130.25 212.16 129.78 210.66 129.78C209.54 129.78 208.64 130.14 207.94 130.87C207.24 131.6 206.9 132.57 206.9 133.79C206.9 135.07 207.24 136.06 207.94 136.76C208.63 137.46 209.54 137.8 210.68 137.8C211.63 137.8 212.4 137.6 212.98 137.21C213.57 136.81 213.86 136.26 213.86 135.54V135.22H210.39H210.38Z" fill="black"/>
<path d="M104.24 12.92H147.89V0H104.24V12.92ZM104.88 0.64H147.25V12.28H104.88V0.64ZM143.41 7.06H145.26V5.8H143.41V3.97H142.18V5.8H140.34V7.06H142.18V8.89H143.41V7.06ZM138.34 9.9H139.89L137.07 2.87H135.57L132.83 9.9H134.34L134.92 8.3H137.73L138.34 9.9ZM137.27 7.12H135.35L136.3 4.51L137.27 7.12ZM155.27 12.09H104.24V37.3V48.94V98.71H199.51V85.79H192.14V73.51H184.77V61.23H177.39V48.95H172.06V36.68H162.64V24.38H155.26V12.1L155.27 12.09ZM104.88 86.43H198.86V98.07H104.88V86.43ZM104.88 74.15H191.49V85.79H104.88V74.15ZM104.88 61.86H184.12V73.5H104.88V61.86ZM104.88 49.58H176.74V61.22H104.88V49.58ZM104.88 37.31H171.42V48.94H104.88V37.31ZM104.88 25.01H162V36.65H104.88V25.01ZM150.21 21.99H148.66L148.05 20.39H145.24L144.66 21.99H143.15L145.89 14.96H147.39L150.21 21.99ZM145.68 19.21H147.6L146.63 16.6L145.68 19.21ZM155.3 27.31C155.03 27.26 154.61 27.24 154.06 27.24H151.25V34.27H153.64C154.54 34.27 155.12 34.25 155.35 34.22C155.73 34.18 156.04 34.07 156.3 33.89C156.56 33.71 156.76 33.47 156.91 33.17C157.06 32.87 157.13 32.56 157.13 32.24C157.13 31.83 157.02 31.48 156.78 31.18C156.55 30.88 156.22 30.67 155.79 30.54C156.09 30.4 156.33 30.2 156.51 29.92C156.69 29.65 156.78 29.34 156.78 29.01C156.78 28.71 156.71 28.43 156.57 28.19C156.43 27.95 156.25 27.75 156.03 27.6C155.81 27.45 155.57 27.36 155.29 27.31M152.67 31.21H153.82C154.47 31.21 154.89 31.24 155.08 31.31C155.27 31.38 155.42 31.48 155.52 31.63C155.62 31.78 155.67 31.96 155.67 32.17C155.67 32.42 155.6 32.62 155.47 32.77C155.34 32.92 155.17 33.01 154.95 33.05C154.81 33.08 154.49 33.09 153.98 33.09H152.66V31.21H152.67ZM155.23 28.68C155.35 28.82 155.41 28.99 155.41 29.21C155.41 29.43 155.34 29.62 155.2 29.76C155.06 29.9 154.87 29.98 154.63 30.01C154.49 30.03 154.15 30.03 153.6 30.03H152.67V28.41H153.49C154.16 28.41 154.56 28.41 154.7 28.43C154.94 28.46 155.12 28.54 155.24 28.68M160.31 44.9C159.99 44.52 159.83 43.89 159.83 43C159.83 42.16 159.99 41.56 160.31 41.18C160.64 40.81 161.06 40.62 161.58 40.62C161.96 40.62 162.28 40.73 162.54 40.94C162.8 41.15 162.98 41.44 163.06 41.8L164.46 41.47C164.3 40.9 164.06 40.48 163.74 40.18C163.2 39.67 162.5 39.41 161.64 39.41C160.66 39.41 159.86 39.74 159.25 40.38C158.64 41.03 158.34 41.94 158.34 43.11C158.34 44.21 158.64 45.09 159.25 45.73C159.85 46.37 160.61 46.69 161.55 46.69C162.3 46.69 162.93 46.51 163.42 46.14C163.91 45.76 164.26 45.2 164.47 44.42L163.09 43.99C162.98 44.51 162.78 44.88 162.5 45.13C162.23 45.36 161.91 45.49 161.52 45.49C161.01 45.49 160.6 45.3 160.28 44.92M171.67 56.89C171.81 56.47 171.89 55.97 171.89 55.39C171.89 54.73 171.81 54.18 171.66 53.73C171.51 53.28 171.28 52.9 170.99 52.59C170.69 52.28 170.34 52.06 169.93 51.94C169.62 51.85 169.18 51.8 168.59 51.8H165.99V58.84H168.66C169.18 58.84 169.6 58.79 169.92 58.69C170.34 58.56 170.67 58.37 170.92 58.13C171.25 57.82 171.5 57.4 171.67 56.89ZM170.41 55.33C170.41 55.87 170.36 56.3 170.27 56.62C170.17 56.93 170.05 57.16 169.9 57.3C169.75 57.44 169.56 57.53 169.33 57.59C169.15 57.63 168.87 57.66 168.47 57.66H167.41V53H168.05C168.63 53 169.02 53.02 169.22 53.07C169.49 53.13 169.7 53.24 169.88 53.4C170.05 53.56 170.19 53.79 170.28 54.08C170.38 54.37 170.42 54.79 170.42 55.33M178.58 64.09H173.36V71.12H178.71V69.93H174.78V68.02H178.31V66.84H174.78V65.28H178.58V64.09ZM185.57 76.37H180.74V83.4H182.16V80.41H185.1V79.22H182.16V77.56H185.56V76.37H185.57ZM193.4 89.09C192.91 88.72 192.23 88.54 191.35 88.54C190.68 88.54 190.12 88.66 189.67 88.89C189.08 89.19 188.63 89.63 188.32 90.2C188.01 90.77 187.86 91.42 187.86 92.15C187.86 92.82 188 93.45 188.27 94.02C188.54 94.59 188.96 95.04 189.5 95.34C190.05 95.65 190.69 95.8 191.42 95.8C192 95.8 192.57 95.69 193.14 95.47C193.71 95.25 194.14 95 194.43 94.71V91.91H191.37V93.1H193V93.99C192.78 94.16 192.53 94.3 192.23 94.41C191.93 94.53 191.63 94.58 191.33 94.58C190.73 94.58 190.24 94.37 189.87 93.95C189.5 93.53 189.31 92.91 189.31 92.07C189.31 91.3 189.49 90.71 189.86 90.32C190.23 89.93 190.72 89.73 191.34 89.73C191.75 89.73 192.09 89.83 192.37 90.03C192.64 90.23 192.83 90.5 192.93 90.85L194.34 90.59C194.2 89.94 193.88 89.44 193.39 89.07" fill="black"/>
</g>
</g>
<defs>
<clipPath id="clip0_1588_1348">
<rect width="304" height="140" fill="white"/>
</clipPath>
<clipPath id="clip1_1588_1348">
<rect width="128.5" height="140.1" fill="white" transform="translate(87.75)"/>
</clipPath>
</defs>
</svg>
