<svg width="304" height="140" viewBox="0 0 304 140" fill="none" xmlns="http://www.w3.org/2000/svg">
<path d="M281.074 102.67C280.077 102.67 279.148 102.506 278.286 102.177C277.436 101.837 276.751 101.367 276.229 100.766L277.861 99.1001C278.711 100.063 279.799 100.545 281.125 100.545C282.485 100.545 283.165 100.103 283.165 99.2191C283.165 98.8451 283.029 98.5561 282.757 98.3521C282.485 98.1481 282.021 97.9668 281.363 97.8081L280.258 97.5701C279 97.3094 278.077 96.9071 277.487 96.3631C276.898 95.8191 276.603 95.0938 276.603 94.1871C276.603 93.0764 277.006 92.2038 277.81 91.5691C278.626 90.9231 279.743 90.6001 281.159 90.6001C282.893 90.6001 284.344 91.1724 285.511 92.3171L283.913 93.9831C283.494 93.5071 283.052 93.1784 282.587 92.9971C282.134 92.8044 281.596 92.7081 280.972 92.7081C280.383 92.7081 279.924 92.8271 279.595 93.0651C279.267 93.2918 279.102 93.6091 279.102 94.0171C279.102 94.3684 279.238 94.6461 279.51 94.8501C279.794 95.0541 280.258 95.2298 280.904 95.3771L282.009 95.5981C283.279 95.8701 284.208 96.2838 284.797 96.8391C285.387 97.3944 285.681 98.1368 285.681 99.0661C285.681 100.165 285.268 101.044 284.44 101.701C283.624 102.347 282.502 102.67 281.074 102.67Z" fill="black"/>
<path d="M274.518 102.5H266.63V90.77H269.163V100.171H274.518V102.5Z" fill="black"/>
<path d="M264.455 102.5H261.769L260.834 99.882H256.227L255.292 102.5H252.623L257.162 90.77H259.933L264.455 102.5ZM258.335 94.051L257.009 97.74H260.069L258.743 94.051C258.732 94.0057 258.709 93.9434 258.675 93.864C258.652 93.7847 258.63 93.711 258.607 93.643C258.584 93.575 258.562 93.507 258.539 93.439L258.335 94.051Z" fill="black"/>
<path d="M250.43 102.5H247.897V90.77H250.43V102.5Z" fill="black"/>
<path d="M241.924 102.5H239.408V93.099H235.821V90.77H245.511V93.099H241.924V102.5Z" fill="black"/>
<path d="M225.387 102.5H222.905V90.77H225.744L230.589 98.199C230.691 98.3464 230.822 98.5674 230.98 98.862C230.969 98.7147 230.963 98.4937 230.963 98.199V90.77H233.445V102.5H230.589L225.761 95.105C225.546 94.765 225.416 94.544 225.37 94.442C225.382 94.6007 225.387 94.8217 225.387 95.105V102.5Z" fill="black"/>
<path d="M220.212 102.5H211.712V90.77H220.127V92.997H214.245V95.445H219.209V97.672H214.245V100.273H220.212V102.5Z" fill="black"/>
<path d="M202.667 102.5H198.179V90.77H202.667C204.503 90.77 206.022 91.297 207.223 92.351C208.436 93.3937 209.042 94.816 209.042 96.618C209.042 98.42 208.436 99.8537 207.223 100.919C206.01 101.973 204.492 102.5 202.667 102.5ZM200.712 93.099V100.171H202.531C203.676 100.171 204.605 99.8707 205.319 99.27C206.044 98.658 206.407 97.774 206.407 96.618C206.407 95.4734 206.05 94.6007 205.336 94C204.622 93.3994 203.687 93.099 202.531 93.099H200.712Z" fill="black"/>
<path d="M195.486 102.5H186.986V90.77H195.401V92.997H189.519V95.445H194.483V97.672H189.519V100.273H195.486V102.5Z" fill="black"/>
<path d="M182.338 98.743L184.701 102.5H181.76L179.635 98.998C179.465 98.7034 179.318 98.522 179.193 98.454C179.068 98.3747 178.853 98.335 178.547 98.335H176.932V102.5H174.399V90.77H179.703C180.972 90.77 181.998 91.1044 182.78 91.773C183.562 92.4417 183.953 93.3314 183.953 94.442C183.953 95.258 183.749 95.955 183.341 96.533C182.944 97.111 182.372 97.536 181.624 97.808C181.805 97.9554 182.043 98.267 182.338 98.743ZM176.932 92.963V96.21H179.278C180.638 96.21 181.318 95.6717 181.318 94.595C181.318 93.507 180.638 92.963 179.278 92.963H176.932Z" fill="black"/>
<path d="M167.17 102.67C165.413 102.67 163.957 102.103 162.801 100.97C161.656 99.8368 161.084 98.3861 161.084 96.6181C161.084 94.8614 161.656 93.4221 162.801 92.3001C163.957 91.1668 165.413 90.6001 167.17 90.6001C169.13 90.6001 170.7 91.2971 171.879 92.6911L170.009 94.2381C169.295 93.3654 168.348 92.9291 167.17 92.9291C166.161 92.9291 165.334 93.2691 164.688 93.9491C164.042 94.6291 163.719 95.5188 163.719 96.6181C163.719 97.7401 164.036 98.6411 164.671 99.3211C165.305 100.001 166.138 100.341 167.17 100.341C167.804 100.341 168.354 100.233 168.819 100.018C169.283 99.7914 169.737 99.4288 170.179 98.9301L172.015 100.494C170.87 101.945 169.255 102.67 167.17 102.67Z" fill="black"/>
<path d="M147.04 98.029L142.637 90.77H145.578L148.383 95.717C148.474 95.8757 148.53 95.989 148.553 96.057C148.564 96.0344 148.581 96.0004 148.604 95.955C148.627 95.9097 148.644 95.87 148.655 95.836C148.678 95.7907 148.7 95.751 148.723 95.717L151.511 90.77H154.435L150.032 98.029C149.885 98.301 149.811 98.5447 149.811 98.76V102.5H147.278V98.76C147.278 98.5334 147.199 98.2897 147.04 98.029Z" fill="black"/>
<path d="M137.603 102.5H135.087V93.099H131.5V90.77H141.19V93.099H137.603V102.5Z" fill="black"/>
<path d="M129.103 102.5H126.57V90.77H129.103V102.5Z" fill="black"/>
<path d="M121.9 90.77H124.569L120.2 102.5H117.259L112.907 90.77H115.593L118.534 99.253L118.738 99.916C118.761 99.8707 118.795 99.7687 118.84 99.61C118.885 99.4514 118.925 99.338 118.959 99.27L121.9 90.77Z" fill="black"/>
<path d="M110.884 102.5H108.351V90.77H110.884V102.5Z" fill="black"/>
<path d="M102.377 102.5H99.8614V93.099H96.2744V90.77H105.964V93.099H102.377V102.5Z" fill="black"/>
<path d="M89.9293 102.67C88.1726 102.67 86.7163 102.103 85.5603 100.97C84.4156 99.8368 83.8433 98.3861 83.8433 96.6181C83.8433 94.8614 84.4156 93.4221 85.5603 92.3001C86.7163 91.1668 88.1726 90.6001 89.9293 90.6001C91.8899 90.6001 93.4596 91.2971 94.6383 92.6911L92.7683 94.2381C92.0543 93.3654 91.1079 92.9291 89.9293 92.9291C88.9206 92.9291 88.0933 93.2691 87.4473 93.9491C86.8013 94.6291 86.4783 95.5188 86.4783 96.6181C86.4783 97.7401 86.7956 98.6411 87.4303 99.3211C88.0649 100.001 88.8979 100.341 89.9293 100.341C90.5639 100.341 91.1136 100.233 91.5783 100.018C92.0429 99.7914 92.4963 99.4288 92.9383 98.9301L94.7743 100.494C93.6296 101.945 92.0146 102.67 89.9293 102.67Z" fill="black"/>
<path d="M81.812 102.5H73.312V90.77H81.727V92.997H75.845V95.445H80.809V97.672H75.845V100.273H81.812V102.5Z" fill="black"/>
<path d="M61.9947 102.5H59.5127V90.77H62.3517L67.1967 98.199C67.2987 98.3464 67.429 98.5674 67.5877 98.862C67.5764 98.7147 67.5707 98.4937 67.5707 98.199V90.77H70.0527V102.5H67.1967L62.3687 95.105C62.1534 94.765 62.023 94.544 61.9777 94.442C61.989 94.6007 61.9947 94.8217 61.9947 95.105V102.5Z" fill="black"/>
<path d="M48.1954 102.5H45.7134V90.77H48.5524L53.3974 98.199C53.4994 98.3464 53.6297 98.5674 53.7884 98.862C53.777 98.7147 53.7714 98.4937 53.7714 98.199V90.77H56.2534V102.5H53.3974L48.5694 95.105C48.354 94.765 48.2237 94.544 48.1784 94.442C48.1897 94.6007 48.1954 94.8217 48.1954 95.105V102.5Z" fill="black"/>
<path d="M36.9413 102.67C35.1733 102.67 33.7113 102.103 32.5553 100.97C31.3993 99.8368 30.8213 98.3918 30.8213 96.6351C30.8213 94.8784 31.3993 93.4334 32.5553 92.3001C33.7113 91.1668 35.1733 90.6001 36.9413 90.6001C38.698 90.6001 40.1543 91.1668 41.3103 92.3001C42.4663 93.4334 43.0443 94.8784 43.0443 96.6351C43.0443 98.3918 42.4663 99.8368 41.3103 100.97C40.1543 102.103 38.698 102.67 36.9413 102.67ZM36.9413 100.341C37.9613 100.341 38.7943 100.001 39.4403 99.3211C40.0863 98.6411 40.4093 97.7458 40.4093 96.6351C40.4093 95.5244 40.0863 94.6291 39.4403 93.9491C38.7943 93.2691 37.9613 92.9291 36.9413 92.9291C35.91 92.9291 35.0713 93.2691 34.4253 93.9491C33.7793 94.6291 33.4563 95.5244 33.4563 96.6351C33.4563 97.7458 33.7793 98.6411 34.4253 99.3211C35.0713 100.001 35.91 100.341 36.9413 100.341Z" fill="black"/>
<path d="M24.3531 102.67C22.5964 102.67 21.1401 102.103 19.9841 100.97C18.8394 99.8368 18.2671 98.3861 18.2671 96.6181C18.2671 94.8614 18.8394 93.4221 19.9841 92.3001C21.1401 91.1668 22.5964 90.6001 24.3531 90.6001C26.3138 90.6001 27.8834 91.2971 29.0621 92.6911L27.1921 94.2381C26.4781 93.3654 25.5318 92.9291 24.3531 92.9291C23.3444 92.9291 22.5171 93.2691 21.8711 93.9491C21.2251 94.6291 20.9021 95.5188 20.9021 96.6181C20.9021 97.7401 21.2194 98.6411 21.8541 99.3211C22.4888 100.001 23.3218 100.341 24.3531 100.341C24.9878 100.341 25.5374 100.233 26.0021 100.018C26.4668 99.7914 26.9201 99.4288 27.3621 98.9301L29.1981 100.494C28.0534 101.945 26.4384 102.67 24.3531 102.67Z" fill="black"/>
<path d="M35.8101 67.05H13.3101V36H35.5801V41.9H20.0201V48.38H33.1601V54.28H20.0201V61.16H35.8101V67.06V67.05Z" fill="black"/>
<path d="M47.51 67.05H39.55L50.13 51.43L39.72 36H47.73L53.9 45.58C53.99 45.7 54.0901 45.86 54.2101 46.05C54.3301 46.25 54.4101 46.37 54.4401 46.43C54.5001 46.34 54.5801 46.2 54.6901 46C54.7901 45.81 54.8801 45.66 54.9401 45.57L61.1401 36H69.1L58.66 51.39L69.1901 67.05H61.18L54.93 57.28C54.81 57.1 54.6301 56.8 54.3901 56.38C54.1501 56.8 53.97 57.1 53.85 57.28L47.5 67.05H47.51Z" fill="black"/>
<path d="M96.1501 67.05H73.6501V36H95.9201V41.9H80.3501V48.38H93.4901V54.28H80.3501V61.16H96.1401V67.06L96.1501 67.05Z" fill="black"/>
<path d="M108.93 67.05H102.36V36H110.64L118.65 52.02L126.66 36H134.9V67.05H128.33V47.47C128.33 46.72 128.34 46.15 128.37 45.76C128.01 46.54 127.72 47.11 127.51 47.47L121.44 59.76H115.9L109.73 47.43L108.87 45.76C108.9 46.15 108.91 46.74 108.91 47.52V67.05H108.93Z" fill="black"/>
<path d="M155.28 36C159 36 161.95 36.94 164.14 38.83C166.33 40.72 167.43 43.27 167.43 46.48C167.43 49.69 166.31 52.42 164.08 54.4C161.84 56.38 158.85 57.37 155.1 57.37H149.12V67.04H142.41V36H155.28ZM149.12 51.43H154.56C156.39 51.43 157.83 51 158.88 50.15C159.93 49.3 160.46 48.15 160.46 46.71C160.46 45.27 159.95 44.04 158.93 43.2C157.91 42.36 156.48 41.94 154.65 41.94H149.12V51.43Z" fill="black"/>
<path d="M193.35 67.05H172.47V36H179.18V60.88H193.35V67.05Z" fill="black"/>
<path d="M227.87 67.05H220.76L218.28 60.12H206.09L203.61 67.05H196.55L208.56 36H215.89L227.86 67.05H227.87ZM211.67 44.68L208.16 54.45H216.26L212.75 44.68C212.72 44.56 212.67 44.4 212.59 44.19C212.51 43.98 212.45 43.78 212.39 43.61C212.33 43.43 212.27 43.25 212.21 43.07L211.67 44.69V44.68Z" fill="black"/>
<path d="M253.11 57.1L259.36 67.04H251.57L245.95 57.77C245.5 56.99 245.11 56.5 244.78 56.31C244.45 56.12 243.88 56.02 243.07 56.02H238.8V67.04H232.09V36H246.13C249.49 36 252.2 36.89 254.27 38.65C256.34 40.42 257.38 42.78 257.38 45.71C257.38 47.87 256.85 49.71 255.78 51.25C254.71 52.78 253.19 53.9 251.21 54.63C251.69 55.02 252.32 55.84 253.1 57.11L253.11 57.1ZM238.8 41.8V50.4H245.01C248.61 50.4 250.41 48.98 250.41 46.13C250.41 43.28 248.61 41.81 245.01 41.81H238.8V41.8Z" fill="black"/>
<path d="M271.11 55.21L259.46 36H267.25L274.67 49.09C274.91 49.51 275.06 49.81 275.12 49.99C275.15 49.93 275.2 49.84 275.25 49.72C275.31 49.6 275.36 49.49 275.41 49.38C275.45 49.28 275.51 49.18 275.57 49.09L282.95 36H290.69L279.03 55.21C278.64 55.93 278.45 56.58 278.45 57.15V67.05H271.74V57.15C271.74 56.55 271.53 55.91 271.11 55.21Z" fill="black"/>
</svg>
